# xmcd CD database file
#
# Track frame offsets:
#	150
#	44960
#	74540
#	101060
#	142070
#	174622
#	202145
#
# Disc length: 3050 seconds
#
# Revision: 0
# Processed by: cddbd v1.5.1PL2 Copyright (c) Steve Scherf et al.
# Submitted via: CDex 1.51
#
DISCID=780be807
DTITLE=Tool - 1999-10-10-Empire Polo Field-Indio, CA[CD2]
DYEAR=1999
DGENRE=Blues
TTITLE0=Eulogy
TTITLE1=Stinkfist
TTITLE2=Sober
TTITLE3=You Lied (Peach cover)
TTITLE4=Ænema
TTITLE5=Opiate
TTITLE6=Jerk Off
EXTD=YEAR: 1999
EXTT0=
EXTT1=
EXTT2=
EXTT3=
EXTT4=
EXTT5=
EXTT6=
PLAYORDER=
